<svg xmlns="http://www.w3.org/2000/svg" width="1280" height="800" viewBox="0 0 1280 800" role="img" aria-label="Schedule app preview">
  <rect width="1280" height="800" fill="#f4f8f5"/>
  <rect x="120" y="86" width="1040" height="628" rx="30" fill="#ffffff" stroke="#d7ddd6" stroke-width="4"/>
  <text x="170" y="165" fill="#16211d" font-family="Arial, sans-serif" font-size="52" font-weight="700">Vibe Schedule</text>
  <rect x="170" y="230" width="260" height="390" rx="22" fill="#e5eee9"/>
  <rect x="470" y="230" width="260" height="390" rx="22" fill="#e7eef8"/>
  <rect x="770" y="230" width="260" height="390" rx="22" fill="#fff5df"/>
  <rect x="205" y="285" width="190" height="34" rx="17" fill="#1f7a68"/>
  <rect x="505" y="285" width="190" height="34" rx="17" fill="#3568a6"/>
  <rect x="805" y="285" width="190" height="34" rx="17" fill="#c28d2e"/>
  <rect x="205" y="360" width="165" height="24" rx="12" fill="#ffffff"/>
  <rect x="505" y="360" width="165" height="24" rx="12" fill="#ffffff"/>
  <rect x="805" y="360" width="165" height="24" rx="12" fill="#ffffff"/>
  <rect x="205" y="420" width="125" height="24" rx="12" fill="#ffffff"/>
  <rect x="505" y="420" width="125" height="24" rx="12" fill="#ffffff"/>
  <rect x="805" y="420" width="125" height="24" rx="12" fill="#ffffff"/>
</svg>
