<svg xmlns="http://www.w3.org/2000/svg" width="1280" height="800" viewBox="0 0 1280 800" role="img" aria-label="Knowledge base assistant preview">
  <rect width="1280" height="800" fill="#070b18"/>
  <rect x="110" y="96" width="1060" height="608" rx="34" fill="#11182a" stroke="#29384f" stroke-width="3"/>
  <text x="160" y="170" fill="#f7fbff" font-family="Arial, sans-serif" font-size="52" font-weight="700">WuXi AI Assistant</text>
  <rect x="160" y="230" width="330" height="400" rx="24" fill="#0b1222" stroke="#314861"/>
  <rect x="530" y="230" width="590" height="110" rx="22" fill="#14233b"/>
  <rect x="530" y="370" width="590" height="110" rx="22" fill="#14233b"/>
  <rect x="530" y="510" width="430" height="110" rx="22" fill="#14233b"/>
  <g fill="#12f7d6">
    <circle cx="220" cy="300" r="18"/>
    <circle cx="220" cy="390" r="18"/>
    <circle cx="220" cy="480" r="18"/>
  </g>
  <g fill="#dbe7ff" font-family="Arial, sans-serif" font-size="26" font-weight="700">
    <text x="255" y="310">需求调研</text>
    <text x="255" y="400">知识库构建</text>
    <text x="255" y="490">培训推广</text>
  </g>
  <rect x="575" y="272" width="410" height="22" rx="11" fill="#12f7d6"/>
  <rect x="575" y="412" width="330" height="22" rx="11" fill="#9d7cff"/>
  <rect x="575" y="552" width="260" height="22" rx="11" fill="#4aa8ff"/>
</svg>
